PathFileType	4	(X/Y/Z)	RBDS08\RBDS08runT25.trc
DataRate	CameraRate	NumFrames	NumMarkers	Units	OrigDataRate	OrigDataStartFrame	OrigNumFrames
150.000000	150.000000	4	33	mm	150.000000	2250	4500
Frame#	Time	L.ASIS			L.Heel.Bottom			L.Heel.Lateral			L.Heel.Top			L.Iliac.Crest			L.MT1			L.MT5			L.PSIS			L.Shank.Bottom.Lateral			L.Shank.Bottom.Medial			L.Shank.Top.Lateral			L.Shank.Top.Medial			L.Thigh.Bottom.Lateral			L.Thigh.Bottom.Medial			L.Thigh.Top.Lateral			L.Thigh.Top.Medial			R.ASIS			R.ASY			R.Heel.Bottom			R.Heel.Lateral			R.Heel.Top			R.Iliac.Crest			R.MT1			R.MT5			R.PSIS			R.Shank.Bottom.Lateral			R.Shank.Bottom.Medial			R.Shank.Top.Lateral			R.Shank.Top.Medial			R.Thigh.Bottom.Lateral			R.Thigh.Bottom.Medial			R.Thigh.Top.Lateral			R.Thigh.Top.Medial			
		X1	Y1	Z1	X2	Y2	Z2	X3	Y3	Z3	X4	Y4	Z4	X5	Y5	Z5	X6	Y6	Z6	X7	Y7	Z7	X8	Y8	Z8	X9	Y9	Z9	X10	Y10	Z10	X11	Y11	Z11	X12	Y12	Z12	X13	Y13	Z13	X14	Y14	Z14	X15	Y15	Z15	X16	Y16	Z16	X17	Y17	Z17	X18	Y18	Z18	X19	Y19	Z19	X20	Y20	Z20	X21	Y21	Z21	X22	Y22	Z22	X23	Y23	Z23	X24	Y24	Z24	X25	Y25	Z25	X26	Y26	Z26	X27	Y27	Z27	X28	Y28	Z28	X29	Y29	Z29	X30	Y30	Z30	X31	Y31	Z31	X32	Y32	Z32	X33	Y33	Z33	

2251	15	2130.779575231071	979.5347874046159	911.624479714531	1829.802033404895	40.87139321183095	964.7803988269826	1866.181107031536	58.30258786623234	924.8474568172365	1846.224716134339	89.79704499923125	973.0364620093723	2067.824591822769	1038.917310585814	884.6353891978576	2052.61211440975	50.15051363436086	1025.581819667076	2024.784971095324	39.86001266339083	917.6062262680827	1964.958196822369	1011.576320317619	993.2439688831222	1949.476881399901	155.1477286500857	921.1327975233687	1911.138231741143	176.2984908234861	948.312391071555	1977.333260076729	227.7526898855531	898.1853694897188	1942.138777294728	252.7322818106947	929.8158684553158	2082.55902698341	605.7502672137533	850.0560156353191	2025.438387473772	591.1209868355705	892.7496469914593	2049.198068997147	711.3304915286348	844.1078071000945	1999.446676912414	698.248576525399	890.7501436053782	2142.791972127406	956.2011199575994	1142.76543031939	1858.507118804498	293.7587255674208	1108.51703760798	1739.2511829785	445.2943008895044	1096.600691388672	1767.987347467975	430.6441415400089	1138.04302246369	1788.663095139792	448.651265899747	1089.138180051717	2093.126836855935	1028.226051937909	1177.762263107958	1817.578202527867	232.2448201463177	1078.12717122788	1813.538829908006	275.8058877738682	1178.785051815318	1972.033666120897	1002.64058459264	1089.806653912942	1907.3235309365	432.5868907187206	1139.147417656434	1899.797648282042	457.770014873404	1090.737450061511	1982.998728087028	463.046058622454	1139.850896561604	1975.702868856584	483.9763174621226	1091.108465689041	2196.386999307906	565.5883695527748	1161.678530341562	2144.671776858616	545.1213447002679	1113.975661977071	2140.698443958831	659.6769985989092	1180.723500085825	2090.325399941771	638.3798994205538	1139.011197763588	
2252	15.00666666666667	2130.05934180879	981.6076480675252	911.3448025822996	1813.174946849639	42.86245388125865	964.6263781885825	1849.705976048242	59.94427828828593	924.6869431910986	1829.907163150295	91.6594288824849	972.7488812963821	2069.064260966611	1042.567957395541	884.4977732873618	2035.838829388511	50.2862363956465	1025.589163521671	2007.944479617808	40.09284070065907	917.6849161248649	1964.719068824845	1014.525121377193	993.2729135237864	1933.718495089852	156.949185853266	921.1276079533749	1895.387943006647	178.311941431355	948.1809277185355	1962.105810857557	229.4160744683805	898.3498775233523	1926.862373935237	254.5648285894217	929.8475661417249	2072.938532624579	607.0859776529164	851.0434262231688	2015.434820782408	594.1511965125737	893.7804883018068	2042.34775772708	713.4969716975393	844.8285685509635	1992.324314483116	701.892792818079	891.6066138751358	2143.011851751796	959.6717312438496	1142.07375610439	1875.95037709819	289.8772238537473	1108.09380398477	1749.547424045431	435.4970701141602	1095.435158601413	1778.953897609093	422.2494036901506	1136.864534312384	1798.605930788243	441.181653872294	1087.856066615341	2093.214409971867	1031.532746622935	1177.637570599374	1838.075196208906	226.3118986986969	1077.902829684923	1831.856333636867	270.1106929778103	1178.502492558002	1971.966961203969	1005.9452740511	1090.011561523144	1918.640416924326	430.1070874555251	1138.096265216359	1910.338236085786	454.6586599115676	1089.532365651311	1993.208876355432	463.2245427496863	1138.795797637652	1985.23003447752	483.509664826634	1089.867602642071	2205.062583395195	572.9601090100516	1161.931972585293	2153.368519902461	550.8693556934195	1114.901315838446	2147.049642615092	665.5455190598627	1181.329822350319	2096.682734831533	642.6077478209012	1140.246860879743	
2253	15.01333333333333	2129.513674216263	983.9840881771884	910.9953623555955	1796.708847615959	45.45956264403942	964.5403571163768	1833.420597966269	62.09294795953831	924.5891382224135	1813.90021254917	94.06698190249642	972.5279806542204	2070.634424261188	1046.403192479855	884.4399913060738	2019.15935688906	50.47676573692877	1025.65653376604	1991.122660293584	40.46854831030249	917.8284539524784	1964.644994682985	1017.71107064504	993.2865660215407	1918.065604076727	159.1525120372376	921.2867662191452	1879.710806533804	180.6788214494187	948.2040383183474	1946.906163000412	231.5157814602271	898.7103192803961	1911.590092654112	256.7790484967343	930.0836645579815	2063.175636358952	608.8244514300366	852.3259517713309	2005.410717828891	597.7174737788786	895.2447239114988	2035.497935907624	716.0124468235678	845.7609065608332	1985.258614559558	706.0172158790398	892.7482057588527	2143.418673402167	963.493134294235	1141.309493877462	1893.663045761127	285.454917432681	1107.502736727013	1760.075292866859	424.5927728171496	1094.106623399518	1790.049599336863	412.7850289423992	1135.565995724961	1808.665980604951	432.7264184461766	1086.505412846229	2093.442163076584	1035.234511764782	1177.484770334026	1859.092688261122	219.9829550091024	1077.364781200289	1850.464997229744	263.7850048499508	1177.947231984676	1972.064592702725	1009.616426735037	1090.26108012802	1929.770436479369	427.0396985835013	1136.982574627918	1920.673334951296	450.8971332836084	1088.258776882033	2003.036584364129	462.9936855942458	1137.734483451651	1994.366898347386	482.5917373018102	1088.620322025209	2213.268785789674	580.7994258221069	1162.258902876883	2161.613237194542	557.1605754908824	1115.928682262627	2153.158272407058	671.9111604017307	1182.035068415571	2102.77988247417	647.4111039151621	1141.579786782929	
2254	15.02	2129.15314049549	986.6144589956634	910.5951218035036	1780.444176665621	48.74925014667316	964.5539852312392	1817.364173957326	64.81813472973583	924.5801679372271	1798.263313249074	97.09655114869547	972.4049415789793	2072.46939099528	1050.353339952387	884.4646949640718	2002.599255580828	50.68738977275306	1025.781966168089	1974.322104641222	40.9729120180934	918.0373166880426	1964.745657169968	1021.130014171609	993.2634691335128	1902.56760050201	161.7909263172629	921.6159035482874	1864.175246172327	183.4412612492563	948.4062289046242	1931.790055827084	234.0786036564606	899.2605452615376	1896.402820154143	259.4121337319438	930.5342326692811	2053.365751070437	610.9759631708118	853.8377284208757	1995.460037905741	601.7947763402315	897.0520855668885	2028.722505355305	718.878102446199	846.8598449247236	1978.321392639872	710.593492363412	894.1111086722636	2143.986420967768	967.6430402318711	1140.504212540564	1911.661705261501	280.5535192964829	1106.751143243209	1770.958132468178	412.6469167851407	1092.641507896083	1801.400087939032	402.3143935018606	1134.16492280696	1818.96424283131	423.3211053080947	1085.098727960068	2093.757432895127	1039.302690857408	1177.326362754121	1880.611768054453	213.3659016255535	1076.529394101268	1869.41339555492	256.9034820328868	1177.12288279851	1972.320442826531	1013.627790017958	1090.538832926427	1940.780000189761	423.3678807418484	1135.81703946223	1930.883756253353	446.4854333400841	1086.92934739186	2012.53355393208	462.297728414246	1136.675137034597	2003.179538736534	481.1834797589719	1087.383166081987	2220.965827323801	589.0002755697392	1162.646965224845	2169.370390004433	563.8979936246274	1117.030873593891	2158.97169620734	678.6853475629947	1182.825543948646	2108.579801560054	652.7149440018466	1142.979623068032	
